<?xml version="1.0" encoding="UTF-8" standalone="no"?>
<!-- Generator: Adobe Illustrator 16.0.0, SVG Export Plug-In . SVG Version: 6.00 Build 0)  -->

<svg
   xmlns:dc="http://purl.org/dc/elements/1.1/"
   xmlns:cc="http://creativecommons.org/ns#"
   xmlns:rdf="http://www.w3.org/1999/02/22-rdf-syntax-ns#"
   xmlns:svg="http://www.w3.org/2000/svg"
   xmlns="http://www.w3.org/2000/svg"
   xmlns:xlink="http://www.w3.org/1999/xlink"
   xmlns:sodipodi="http://sodipodi.sourceforge.net/DTD/sodipodi-0.dtd"
   xmlns:inkscape="http://www.inkscape.org/namespaces/inkscape"
   version="1.1"
   id="Ebene_1"
   x="0px"
   y="0px"
   width="141.99028"
   height="33.866001"
   viewBox="0 0 141.99028 33.866"
   enable-background="new 0 0 219.189 38.747"
   xml:space="preserve"
   sodipodi:docname="Logo_Schrift rechts.svg"
   inkscape:version="0.92.4 (5da689c313, 2019-01-14)"><metadata
   id="metadata472"><rdf:RDF><cc:Work
       rdf:about=""><dc:format>image/svg+xml</dc:format><dc:type
         rdf:resource="http://purl.org/dc/dcmitype/StillImage" /><dc:title></dc:title></cc:Work></rdf:RDF></metadata><defs
   id="defs470" /><sodipodi:namedview
   pagecolor="#ffffff"
   bordercolor="#666666"
   borderopacity="1"
   objecttolerance="10"
   gridtolerance="10"
   guidetolerance="10"
   inkscape:pageopacity="0"
   inkscape:pageshadow="2"
   inkscape:window-width="1920"
   inkscape:window-height="1017"
   id="namedview468"
   showgrid="false"
   inkscape:zoom="6.4191179"
   inkscape:cx="100.26089"
   inkscape:cy="18.169245"
   inkscape:window-x="-8"
   inkscape:window-y="-8"
   inkscape:window-maximized="1"
   inkscape:current-layer="Ebene_1" />
<g
   id="g437"
   transform="translate(-9.333609,-3.6767457)">
</g>
<g
   id="g449"
   transform="translate(-9.333609,-3.6767457)">
	<defs
   id="defs440">
		<line
   id="SVGID_1_"
   x1="0"
   y1="1.26"
   x2="0"
   y2="38.747002" />
	</defs>
	<clipPath
   id="SVGID_2_">
		<use
   xlink:href="#SVGID_1_"
   overflow="visible"
   id="use442"
   style="overflow:visible"
   x="0"
   y="0"
   width="100%"
   height="100%" />
	</clipPath>
	<path
   clip-path="url(#SVGID_2_)"
   d="M 219.189,28.464 V 11.516"
   id="path445"
   inkscape:connector-curvature="0"
   style="fill:#182743" />
	<path
   clip-path="url(#SVGID_2_)"
   d="m 214.68,35.061 c 1.069,-0.183 1.93,-0.518 2.575,-1.007 0.58,-0.438 1.034,-1.088 1.397,-1.895"
   id="path447"
   inkscape:connector-curvature="0"
   style="fill:#38bcd8" />
</g>


<g
   id="g4187"
   transform="translate(-9.333609,-3.6767457)"><g
     transform="translate(-20.666391,-0.62625427)"
     id="g461">
	<defs
   id="defs452">
		<rect
   y="0"
   height="38.169998"
   width="159.09801"
   x="30"
   id="SVGID_3_" />
	</defs>
	<clipPath
   id="SVGID_4_">
		<use
   height="100%"
   width="100%"
   y="0"
   x="0"
   style="overflow:visible"
   id="use454"
   overflow="visible"
   xlink:href="#SVGID_3_" />
	</clipPath>
	<path
   style="fill:#182743"
   inkscape:connector-curvature="0"
   id="path457"
   d="M 30.009,27.509 H 30 v 0.388 l 4.993,-1.862 V 10.938 c 0,-1.166 1.05,-2.114 2.337,-2.114 h 25.464 c 1.288,0 2.333,0.948 2.333,2.114 v 15.089 l 4.984,1.859 V 10.938 c 0,-3.658 -3.283,-6.635 -7.317,-6.635 H 37.331 c -4.038,0 -7.321,2.977 -7.321,6.635 v 16.571 z"
   clip-path="url(#SVGID_4_)" />
	<path
   style="fill:#38bcd8"
   inkscape:connector-curvature="0"
   id="path459"
   d="m 64.714,29.771 c -0.185,0.287 -0.413,0.53 -0.729,0.675 -0.354,0.161 -0.958,0.244 -1.803,0.251 -0.851,0.005 -2.468,0.048 -4.86,0.131 -1.447,0.053 -2.604,0.193 -3.473,0.421 -0.869,0.229 -1.606,0.532 -2.209,0.912 -0.608,0.38 -1.141,0.864 -1.597,1.458 -0.67,-0.769 -1.32,-1.33 -1.962,-1.684 -0.917,-0.487 -2.085,-0.82 -3.501,-0.998 -0.976,-0.114 -3.117,-0.197 -6.428,-0.249 -1.04,-0.01 -1.736,-0.081 -2.086,-0.209 -0.33,-0.124 -0.581,-0.353 -0.767,-0.663 l -4.829,1.803 c 0.294,0.718 0.774,1.333 1.459,1.829 0.703,0.508 1.562,0.854 2.584,1.036 1.021,0.18 2.632,0.271 4.829,0.271 2.544,0 4.207,0.079 4.986,0.234 1.112,0.229 1.91,0.577 2.385,1.043 0.485,0.47 0.755,1.181 0.827,2.137 h 5.007 c 0.052,-0.76 0.207,-1.329 0.456,-1.715 0.252,-0.384 0.67,-0.715 1.264,-0.989 0.589,-0.276 1.33,-0.472 2.221,-0.584 0.667,-0.084 1.822,-0.126 3.461,-0.126 2.698,0 4.582,-0.092 5.653,-0.271 1.069,-0.183 1.929,-0.518 2.575,-1.007 0.58,-0.438 1.034,-1.088 1.397,-1.895 z"
   clip-path="url(#SVGID_4_)" />
</g><text
     style="font-size:11px;font-family:Catamaran-Bold"
     y="15.843446"
     x="55.79361"
     id="text463"
     font-size="11">Manuel Grundner</text>
<text
     style="font-size:11px;font-family:Catamaran-Bold"
     y="29.043646"
     x="55.79361"
     id="text465"
     font-size="11">code &amp; consult</text>
</g>
</svg>