<svg version="1" xmlns="http://www.w3.org/2000/svg" width="1120" height="1120" viewBox="0 0 840.000000 840.000000"><path d="M138.9 66.4c-.2.2-2.9.6-5.9 1-7.1.8-11.5 1.5-16.5 2.7-2.2.5-5.1 1.2-6.4 1.5-16.7 3.6-44 17.6-59.8 30.7-5 4.1-16.9 16.2-20.9 21.2-13.4 16.7-24.1 39.6-27 57.9-.3 2.1-.8 4.8-1.2 6-.3 1.1-.6 85.4-.8 187.3L.2 559.9l2.7-1c1.4-.6 10.5-4 20.1-7.5 9.6-3.6 20.4-7.7 24-9.1 3.6-1.4 7-2.6 7.5-2.8.6-.1 2.4-.7 4-1.4 1.7-.6 6.2-2.3 10-3.7 15.3-5.7 33.1-12.5 34.5-13.3 1.3-.7 1.5-19.8 1.5-162.2.1-88.8.4-162 .9-162.7.4-.6.9-2 1.1-3 .9-4.8 5.5-12.3 11.2-17.9 6.5-6.5 15-11.3 24-13.4 5.6-1.3 542.9-2 552.3-.6 8 1.1 16.7 4.5 23.1 9.1 5.6 4 13.9 13.7 13.9 16.2 0 .8.5 1.4 1.1 1.4.5 0 .8.4.4.9-.3.5-.1 1.2.4 1.5.5.3 1.2 2.7 1.7 5.3.4 2.7.9 76.3 1 163.8.1 87.5.2 159.5.3 160.2 0 .6 2.7 2.1 5.9 3.3 3.1 1.1 6.6 2.5 7.7 3 1.1.5 5.4 2.1 9.5 3.6 11.6 4.1 16.7 6 42 15.6 12.9 4.9 24.1 9 24.8 9 .6.1 1.2.4 1.2.8 0 .3.9.6 2 .7 1.1.1 3.5.9 5.2 1.7 1.7.9 3.7 1.6 4.5 1.6 1.1 0 1.3-29.2 1-184.8-.1-101.6-.6-186.3-1-188.2-.3-1.9-.9-4.6-1.2-6-.3-1.4-.7-3.4-.9-4.5-1.9-9.3-9.6-27.9-15.1-36.5-1.6-2.5-3-4.7-3-5 0-.3-1.4-2.3-3-4.5-1.7-2.2-3.7-4.9-4.5-6-4.9-6.6-23.8-23.8-32.5-29.6C760.9 82.1 737 72 721 69.5c-4.8-.7-8-1.4-11-2.3-2.5-.7-570.3-1.5-571.1-.8zM721.5 605.6c-3.2 3.5-6.7 6.4-7.6 6.4-1 0-2.1.4-2.4 1-.9 1.5-10.6 3.8-19 4.6-4.9.5-50.8 1.6-70.2 1.8-7.9 0-14.3.3-14.3.6s-4.2.5-9.3.6c-11.2.1-44.1 1.4-48.2 1.9-1.6.2-6.3.6-10.3.9-4.1.4-9 .9-11 1.2-9.3 1.3-22.1 3.5-24.9 4.3-1.7.5-3.4.7-3.7.3-.3-.3-.6-.1-.6.5s-.6 1-1.2 1c-5.2-.5-30.5 9.6-43.3 17.1-11.3 6.7-28.3 21.4-33 28.6-2.2 3.3-2.9 3.3-6.2-.6-16.4-18.7-36.4-32.6-57.8-40.1-12.8-4.4-25.5-7.9-34-9.2-2-.3-7.1-1.1-13.5-2.1-4-.7-6.5-.9-17-1.8-22.4-1.8-58.8-3.1-112-4.1-49.1-.8-55.6-2-65.6-12.1l-6.1-6.1-11.9 4.4c-6.5 2.4-13.5 5.1-15.4 5.9-1.9.9-4.2 1.7-5 1.9-1.6.3-14.2 4.9-17.5 6.4-3 1.3-10.4 4.1-15.5 5.7-2.5.8-5.4 1.9-6.5 2.4-3 1.4-18.9 7.4-20 7.6-.5.1-2.7.9-4.7 1.7-3.4 1.4-3.7 1.8-2.9 4 3.2 8.2 12.2 20.8 20.3 28.2C36.9 673.7 50 683 51.7 683c.3 0 1.4.6 2.2 1.3 1.7 1.4 7 3.7 19 8.2 5 1.8 26.3 6.4 32.5 6.9 2.3.2 4.1.5 4.1.5 0 .2 6.2.8 16.3 1.5 16.9 1.3 33.9 1.8 71.7 2.2 43.8.4 65.3.9 76 1.9 3.9.4 7.7.7 8.5.7 12.1.2 35.2 5.6 46.7 10.9 2.4 1 4.6 1.9 4.9 1.9.3 0 1.9.9 3.5 2.1 1.6 1.1 2.9 1.7 2.9 1.4 0-.4.6 0 1.4.7.7.7 2.4 2 3.6 2.8 2.8 1.8 8.8 8.2 11.3 11.8 5.4 8.1 10.3 23.9 10.6 34.5l.1 2.7 52.7-.2 52.6-.3.3-3c1.4-18.1 5.6-29.3 14.1-38.1 4.8-5 11.5-10.4 12.9-10.4.4 0 1.5-.6 2.3-1.3 1.9-1.6 13.2-6.6 16-7.2 1.1-.2 2.8-.8 3.8-1.3 2.1-1.2 22.7-5.8 29.8-6.7 6.8-.9 14.1-1.4 26.3-2 5.6-.2 10.7-.7 11.2-1 .6-.3 1-.1 1 .5s.5.8 1.1.4c.6-.4 18.6-.8 39.9-1 39.9-.3 70.1-1 78-1.8 2.5-.3 8.1-.8 12.5-1.1 10-.7 15.1-1.3 19-1.9 1.7-.3 4.8-.8 7-1.2 2.2-.3 6.1-1.2 8.8-1.9 2.6-.8 4.8-1.4 5-1.3.1 0 2.2-.6 4.7-1.3 2.5-.7 5-1.3 5.6-1.5.6-.1 5-2 9.7-4.2 21-9.8 32.1-20.7 43.7-42.7l3.9-7.3-5.5-2.1c-3-1.2-7.8-3-10.6-4-2.9-1.1-8.2-3-11.8-4.4-3.6-1.3-9.9-3.7-14-5.2s-8.4-3.1-9.5-3.5c-1.9-.7-12.2-4.6-24-9-2.7-1-9.5-3.5-15-5.5-5.5-2.1-10.2-3.8-10.5-4-.3-.1-3.2 2.6-6.5 6.1z"/></svg>