<svg xmlns="http://www.w3.org/2000/svg" xmlns:xlink="http://www.w3.org/1999/xlink" width="141.99" height="33.866">
  <g transform="translate(-9.334 -3.677)">
    <defs>
      <path id="a" d="M0 1.26v37.487"/>
    </defs>
    <clipPath id="b">
      <use xlink:href="#a" overflow="visible" width="100%" height="100%"/>
    </clipPath>
    <path clip-path="url(#b)" d="M219.189 28.464V11.516" fill="#182743"/>
    <path clip-path="url(#b)" d="M214.68 35.061c1.069-.183 1.93-.518 2.575-1.007.58-.438 1.034-1.088 1.397-1.895" fill="#38bcd8"/>
  </g>
  <g transform="translate(-30 -4.303)">
    <defs>
      <path id="c" d="M30 0h159.098v38.17H30z"/>
    </defs>
    <clipPath id="d">
      <use height="100%" width="100%" overflow="visible" xlink:href="#c"/>
    </clipPath>
    <path d="M30.009 27.509H30v.388l4.993-1.862V10.938c0-1.166 1.05-2.114 2.337-2.114h25.464c1.288 0 2.333.948 2.333 2.114v15.089l4.984 1.859V10.938c0-3.658-3.283-6.635-7.317-6.635H37.331c-4.038 0-7.321 2.977-7.321 6.635v16.571z" clip-path="url(#d)" fill="#182743"/>
    <path d="M64.714 29.771c-.185.287-.413.53-.729.675-.354.161-.958.244-1.803.251-.851.005-2.468.048-4.86.131-1.447.053-2.604.193-3.473.421-.869.229-1.606.532-2.209.912a6.031 6.031 0 0 0-1.597 1.458c-.67-.769-1.32-1.33-1.962-1.684-.917-.487-2.085-.82-3.501-.998-.976-.114-3.117-.197-6.428-.249-1.04-.01-1.736-.081-2.086-.209a1.503 1.503 0 0 1-.767-.663l-4.829 1.803a4.19 4.19 0 0 0 1.459 1.829c.703.508 1.562.854 2.584 1.036 1.021.18 2.632.271 4.829.271 2.544 0 4.207.079 4.986.234 1.112.229 1.91.577 2.385 1.043.485.47.755 1.181.827 2.137h5.007c.052-.76.207-1.329.456-1.715.252-.384.67-.715 1.264-.989.589-.276 1.33-.472 2.221-.584.667-.084 1.822-.126 3.461-.126 2.698 0 4.582-.092 5.653-.271 1.069-.183 1.929-.518 2.575-1.007.58-.438 1.034-1.088 1.397-1.895z" clip-path="url(#d)" fill="#38bcd8"/>
  </g>
  <text y="15.843" x="55.794" font-size="11" font-family="Catamaran-Bold" transform="translate(-9.334 -3.677)">
    Manuel Grundner
  </text>
  <text y="29.044" x="55.794" font-size="11" font-family="Catamaran-Bold" transform="translate(-9.334 -3.677)">
    code &amp; consult
  </text>
</svg>
