<svg xmlns="http://www.w3.org/2000/svg" xmlns:xlink="http://www.w3.org/1999/xlink" width="105.325" height="88.926"><defs><path id="a" d="M0 0h105.325v88.926H0z"/></defs><clipPath id="b"><use xlink:href="#a" overflow="visible"/></clipPath><path clip-path="url(#b)" fill="#182743" d="M.025 60.934H0v1.017l13.111-4.892V17.42c0-3.063 2.757-5.551 6.138-5.551h66.864c3.382 0 6.125 2.488 6.125 5.551v39.62l13.087 4.884V17.42C105.325 7.815 96.706 0 86.113 0H19.249C8.645 0 .025 7.815.025 17.42v43.514z"/><g><defs><path id="c" d="M0 0h105.325v88.926H0z"/></defs><clipPath id="d"><use xlink:href="#c" overflow="visible"/></clipPath><path clip-path="url(#d)" fill="#38BCD8" d="M91.154 66.871c-.487.754-1.086 1.393-1.916 1.771-.929.424-2.514.643-4.733.66-2.233.014-6.48.125-12.762.344-3.798.138-6.837.506-9.119 1.104-2.283.6-4.218 1.396-5.802 2.396a15.83 15.83 0 0 0-4.19 3.83c-1.76-2.021-3.468-3.494-5.152-4.424-2.408-1.277-5.477-2.152-9.195-2.619-2.563-.301-8.183-.519-16.878-.654-2.732-.025-4.559-.213-5.477-.549-.866-.325-1.527-.924-2.014-1.741L1.234 71.723c.773 1.885 2.034 3.5 3.83 4.805 1.846 1.334 4.104 2.238 6.787 2.719 2.682.475 6.911.711 12.68.711 6.68 0 11.046.212 13.092.618 2.919.598 5.015 1.515 6.263 2.737 1.272 1.234 1.983 3.1 2.17 5.612h13.147c.139-1.993.543-3.491 1.197-4.503.661-1.01 1.76-1.877 3.319-2.602 1.546-.723 3.491-1.234 5.832-1.533 1.753-.219 4.784-.331 9.088-.331 7.085 0 12.032-.235 14.845-.711 2.807-.479 5.064-1.359 6.762-2.646 1.521-1.146 2.713-2.855 3.666-4.972l-12.758-4.756z"/></g></svg>