<?xml version="1.0" encoding="utf-8"?>
<!-- Generator: Adobe Illustrator 16.0.0, SVG Export Plug-In . SVG Version: 6.00 Build 0)  -->
<!DOCTYPE svg PUBLIC "-//W3C//DTD SVG 1.1//EN" "http://www.w3.org/Graphics/SVG/1.1/DTD/svg11.dtd">
<svg version="1.1" id="Ebene_1" xmlns="http://www.w3.org/2000/svg" xmlns:xlink="http://www.w3.org/1999/xlink" x="0px" y="0px"
	 width="105.325px" height="88.926px" viewBox="0 0 105.325 88.926" enable-background="new 0 0 105.325 88.926"
	 xml:space="preserve">
<g>
	<g>
		<defs>
			<rect id="SVGID_1_" width="105.325" height="88.926"/>
		</defs>
		<clipPath id="SVGID_2_">
			<use xlink:href="#SVGID_1_"  overflow="visible"/>
		</clipPath>
		<path clip-path="url(#SVGID_2_)" fill="#182743" d="M0.025,60.934H0v1.017l13.111-4.892V17.42c0-3.063,2.757-5.551,6.138-5.551
			h66.864c3.382,0,6.125,2.488,6.125,5.551v39.62l13.087,4.884V17.42C105.325,7.815,96.706,0,86.113,0H19.249
			C8.645,0,0.025,7.815,0.025,17.42V60.934z"/>
	</g>
	<g>
		<defs>
			<rect id="SVGID_3_" width="105.325" height="88.926"/>
		</defs>
		<clipPath id="SVGID_4_">
			<use xlink:href="#SVGID_3_"  overflow="visible"/>
		</clipPath>
		<path clip-path="url(#SVGID_4_)" fill="#38BCD8" d="M91.154,66.871c-0.487,0.754-1.086,1.393-1.916,1.771
			c-0.929,0.424-2.514,0.643-4.733,0.66c-2.233,0.014-6.48,0.125-12.762,0.344c-3.798,0.138-6.837,0.506-9.119,1.104
			c-2.283,0.6-4.218,1.396-5.802,2.396c-1.596,0.998-2.993,2.27-4.19,3.83c-1.76-2.021-3.468-3.494-5.152-4.424
			c-2.408-1.277-5.477-2.152-9.195-2.619c-2.563-0.301-8.183-0.519-16.878-0.654c-2.732-0.025-4.559-0.213-5.477-0.549
			c-0.866-0.325-1.527-0.924-2.014-1.741L1.234,71.723c0.773,1.885,2.034,3.5,3.83,4.805c1.846,1.334,4.104,2.238,6.787,2.719
			c2.682,0.475,6.911,0.711,12.68,0.711c6.68,0,11.046,0.212,13.092,0.618c2.919,0.598,5.015,1.515,6.263,2.737
			c1.272,1.234,1.983,3.1,2.17,5.612h13.147c0.139-1.993,0.543-3.491,1.197-4.503c0.661-1.01,1.76-1.877,3.319-2.602
			c1.546-0.723,3.491-1.234,5.832-1.533c1.753-0.219,4.784-0.331,9.088-0.331c7.085,0,12.032-0.235,14.845-0.711
			c2.807-0.479,5.064-1.359,6.762-2.646c1.521-1.146,2.713-2.855,3.666-4.972L91.154,66.871z"/>
	</g>
</g>
</svg>
