<?xml version="1.0" encoding="utf-8"?>
<!-- Generator: Adobe Illustrator 16.0.0, SVG Export Plug-In . SVG Version: 6.00 Build 0)  -->
<!DOCTYPE svg PUBLIC "-//W3C//DTD SVG 1.1//EN" "http://www.w3.org/Graphics/SVG/1.1/DTD/svg11.dtd">
<svg version="1.1" id="Ebene_1" xmlns="http://www.w3.org/2000/svg" xmlns:xlink="http://www.w3.org/1999/xlink" x="0px" y="0px"
	 width="219.189px" height="37.486px" viewBox="0 0 219.189 37.486" enable-background="new 0 0 219.189 37.486"
	 xml:space="preserve">
<g>
	<g>
		<defs>
			<line id="SVGID_1_" x1="0" y1="0" x2="0" y2="37.487"/>
		</defs>
		<clipPath id="SVGID_2_">
			<use xlink:href="#SVGID_1_"  overflow="visible"/>
		</clipPath>
		<path clip-path="url(#SVGID_2_)" fill="#182743" d="M219.189,27.204V10.256"/>
	</g>
	<g>
		<defs>
			<line id="SVGID_3_" x1="0" y1="0" x2="0" y2="37.487"/>
		</defs>
		<clipPath id="SVGID_4_">
			<use xlink:href="#SVGID_3_"  overflow="visible"/>
		</clipPath>
		<path clip-path="url(#SVGID_4_)" fill="#38BCD8" d="M214.68,33.801c1.068-0.183,1.93-0.518,2.574-1.007
			c0.58-0.438,1.034-1.088,1.397-1.896"/>
	</g>
</g>
<g>
	<g>
		<defs>
			<rect id="SVGID_5_" x="41" y="0" width="137.665" height="37.486"/>
		</defs>
		<clipPath id="SVGID_6_">
			<use xlink:href="#SVGID_5_"  overflow="visible"/>
		</clipPath>
		<path clip-path="url(#SVGID_6_)" fill="#182743" d="M138.563,26.826h-0.009v0.388l4.992-1.862V10.256
			c0-1.166,1.051-2.114,2.337-2.114h25.465c1.288,0,2.333,0.948,2.333,2.114v15.089l4.983,1.859V10.256
			c0-3.658-3.283-6.635-7.316-6.635h-25.465c-4.037,0-7.32,2.977-7.32,6.635V26.826L138.563,26.826z"/>
	</g>
	<g>
		<defs>
			<rect id="SVGID_7_" x="41" y="0" width="137.665" height="37.486"/>
		</defs>
		<clipPath id="SVGID_8_">
			<use xlink:href="#SVGID_7_"  overflow="visible"/>
		</clipPath>
		<path clip-path="url(#SVGID_8_)" fill="#38BCD8" d="M173.268,29.088c-0.186,0.287-0.413,0.53-0.729,0.675
			c-0.354,0.161-0.958,0.244-1.804,0.251c-0.852,0.005-2.468,0.048-4.859,0.131c-1.446,0.054-2.604,0.193-3.474,0.421
			c-0.869,0.229-1.605,0.532-2.209,0.912c-0.607,0.38-1.141,0.864-1.597,1.458c-0.671-0.769-1.319-1.33-1.963-1.684
			c-0.917-0.487-2.085-0.82-3.501-0.998c-0.976-0.114-3.116-0.197-6.429-0.249c-1.039-0.01-1.734-0.081-2.086-0.209
			c-0.33-0.124-0.58-0.354-0.767-0.663l-4.829,1.803c0.295,0.718,0.773,1.333,1.459,1.829c0.703,0.508,1.563,0.854,2.584,1.036
			c1.021,0.18,2.633,0.271,4.829,0.271c2.544,0,4.207,0.079,4.985,0.234c1.112,0.229,1.909,0.577,2.386,1.043
			c0.484,0.47,0.755,1.181,0.826,2.137h5.008c0.052-0.76,0.207-1.328,0.456-1.715c0.252-0.384,0.67-0.715,1.264-0.988
			c0.59-0.276,1.33-0.473,2.222-0.584c0.667-0.084,1.821-0.127,3.461-0.127c2.698,0,4.582-0.092,5.652-0.271
			c1.069-0.183,1.93-0.518,2.575-1.007c0.58-0.438,1.034-1.088,1.396-1.896L173.268,29.088z"/>
	</g>
</g>
<text transform="matrix(1 0 0 1 49.9998 16.47)" font-family="'Catamaran', sans-serif" font-weight="bold" font-size="11">Manuel</text>
<text transform="matrix(1 0 0 1 84.9695 16.47)" font-family="'Catamaran', sans-serif" font-weight="bold" font-size="11"> </text>
<text transform="matrix(1 0 0 1 87.2566 16.47)" font-family="'Catamaran', sans-serif" font-weight="bold" font-size="11">Grundner</text>
<text transform="matrix(1 0 0 1 61.4519 29.6702)" font-family="'Catamaran', sans-serif" font-weight="bold" font-size="11">code &amp; consult</text>
</svg>
